<svg width="203" height="229" viewBox="0 0 203 229" fill="none" xmlns="http://www.w3.org/2000/svg">
<path d="M15 9.49976C134 50.5 28.5 181 189 220" stroke="#3A21F5" stroke-width="2"/>
<path d="M5.61888 11.7034C3.3531 10.6133 3.35309 7.38674 5.61887 6.29662L11.8993 3.27493C13.891 2.31667 16.2 3.76807 16.2 5.97831V12.0217C16.2 14.2319 13.891 15.6833 11.8993 14.7251L5.61888 11.7034Z" fill="#3A21F5"/>
<path d="M196.981 217.297C199.247 218.387 199.247 221.613 196.981 222.703L190.701 225.725C188.709 226.683 186.4 225.232 186.4 223.022V216.978C186.4 214.768 188.709 213.317 190.701 214.275L196.981 217.297Z" fill="#3A21F5"/>
</svg>
