<svg width="46" height="46" viewBox="0 0 46 46" fill="none" xmlns="http://www.w3.org/2000/svg">
<rect width="46" height="46" rx="10" fill="#FFBB00"/>
<path d="M23.1112 12.8601C17.4459 12.8601 12.8601 17.4449 12.8601 23.1112C12.8601 28.7765 17.4449 33.3623 23.1112 33.3623C25.1016 33.3623 27.0521 32.7778 28.7083 31.6996C29.2045 31.3766 29.3128 30.6957 28.9378 30.2375L28.5171 29.7236C28.2 29.3363 27.6417 29.2414 27.2203 29.5116C26.0013 30.2934 24.5709 30.7168 23.1112 30.7168C18.9174 30.7168 15.5055 27.3049 15.5055 23.1112C15.5055 18.9174 18.9174 15.5055 23.1112 15.5055C27.2504 15.5055 30.7168 17.8872 30.7168 22.1191C30.7168 23.7224 29.8449 25.4153 28.3124 25.5786C27.5952 25.5598 27.6134 25.0471 27.7553 24.3376L28.7239 19.3315C28.8424 18.7193 28.3735 18.151 27.75 18.151H25.8907C25.7534 18.151 25.621 18.2015 25.5186 18.2929C25.4161 18.3844 25.351 18.5103 25.3355 18.6467L25.3351 18.6505C24.7276 17.9106 23.6632 17.7504 22.8562 17.7504C19.7734 17.7504 17.1589 20.3229 17.1589 24.011C17.1589 26.7103 18.6795 28.3872 21.1271 28.3872C22.2425 28.3872 23.4985 27.7408 24.2269 26.8027C24.6204 28.2124 25.9056 28.2123 27.1497 28.2123C31.6514 28.2123 33.3623 25.2523 33.3623 22.1191C33.3623 16.4832 28.8164 12.8601 23.1112 12.8601ZM22.215 25.4437C21.2954 25.4437 20.7241 24.7979 20.7241 23.7584C20.7241 21.8987 21.9963 20.7522 23.1476 20.7522C24.069 20.7522 24.6191 21.3822 24.6191 22.4374C24.6191 24.3 23.2189 25.4437 22.215 25.4437Z" fill="white"/>
</svg>
