<svg width="25" height="26" viewBox="0 0 25 26" fill="none" xmlns="http://www.w3.org/2000/svg">
<path d="M16.9641 7.663C16.2331 3.161 14.5091 0 12.5001 0C10.4911 0 8.76906 3.161 8.03806 7.663H16.9641ZM7.66406 12.503C7.66436 13.5805 7.71977 14.6572 7.83006 15.729H17.1721C17.2824 14.6572 17.3378 13.5805 17.3381 12.503C17.3378 11.4255 17.2824 10.3488 17.1721 9.277H7.82906C7.71887 10.3478 7.66346 11.4235 7.66306 12.5L7.66406 12.503ZM24.0331 7.663C23.3146 5.95897 22.2278 4.43512 20.8507 3.20082C19.4736 1.96652 17.8403 1.05238 16.0681 0.524C17.4339 2.68414 18.2955 5.1242 18.5891 7.663H24.0331ZM8.93306 0.524C7.16151 1.05252 5.52898 1.96677 4.1527 3.2011C2.77642 4.43542 1.69055 5.9592 0.973063 7.663H6.41806C6.70743 5.12415 7.56721 2.68361 8.93306 0.524V0.524ZM24.5711 9.276H18.7891C18.8951 10.335 18.9551 11.419 18.9551 12.502C18.9551 13.585 18.8951 14.67 18.7891 15.728H24.5661C24.852 14.6758 24.998 13.5904 25.0001 12.5C24.997 11.4107 24.8528 10.3263 24.5711 9.274V9.276ZM6.05006 12.5C6.05006 11.416 6.11006 10.332 6.21606 9.274H0.434063C-0.144036 11.3862 -0.144036 13.6148 0.434063 15.727H6.21106C6.11006 14.67 6.05006 13.586 6.05006 12.5ZM8.04106 17.34C8.77206 21.84 10.4961 25.003 12.5031 25.003C14.5101 25.003 16.2341 21.842 16.9651 17.34H8.04106ZM16.0721 24.479C17.8439 23.9499 19.4768 23.0354 20.8538 21.8012C22.2308 20.567 23.3179 19.0436 24.0371 17.34H18.5921C18.2991 19.8794 17.4378 22.3202 16.0721 24.481V24.479ZM0.973063 17.342C1.69155 19.046 2.77835 20.5699 4.15546 21.8042C5.53257 23.0385 7.16585 23.9526 8.93806 24.481C7.57224 22.3209 6.71058 19.8808 6.41706 17.342H0.973063V17.342Z" fill="white"/>
</svg>
