<svg xmlns="http://www.w3.org/2000/svg" width="80" height="80" viewBox="0 0 80 80">
  <g id="Grupo_31" data-name="Grupo 31" transform="translate(-480 -4593)">
    <circle id="Elipse_1" data-name="Elipse 1" cx="40" cy="40" r="40" transform="translate(480 4593)" fill="#5584eb"/>
    <path id="FontAwsome_linkedin-in_" data-name="FontAwsome (linkedin-in)" d="M8.954,40.009H.661V13.3H8.954ZM4.8,9.661a4.825,4.825,0,1,1,4.8-4.848A4.843,4.843,0,0,1,4.8,9.661ZM39.991,40.009H31.716v-13c0-3.1-.063-7.071-4.312-7.071-4.312,0-4.972,3.366-4.972,6.848V40.009H14.148V13.3H22.1v3.643h.116a8.714,8.714,0,0,1,7.846-4.313c8.393,0,9.936,5.527,9.936,12.705v14.67Z" transform="translate(500 4610.286)" fill="#fff"/>
  </g>
</svg>
