<svg xmlns="http://www.w3.org/2000/svg" width="15" height="12.5" viewBox="0 0 15 12.5">
  <g id="Iconly_Bold_Arrow---Down-2" data-name="Iconly/Bold/Arrow---Down-2" transform="translate(-6 -7)">
    <g id="Arrow---Down-2" transform="translate(6 7)">
      <path id="Trazado_7" data-name="Trazado 7" d="M6.086,12.038c-.072-.071-.382-.337-.637-.586A27.112,27.112,0,0,1,.419,4.208,5.771,5.771,0,0,1,0,2.735,2.416,2.416,0,0,1,.272,1.616,2.342,2.342,0,0,1,1.4.622,12.3,12.3,0,0,1,2.733.3,29.973,29.973,0,0,1,7.49,0,34.656,34.656,0,0,1,12.1.267,10.618,10.618,0,0,1,13.76.693,2.231,2.231,0,0,1,15,2.664v.071a6.1,6.1,0,0,1-.511,1.651,27.113,27.113,0,0,1-4.957,7.085,7.074,7.074,0,0,1-.693.6,2.229,2.229,0,0,1-1.33.426,2.343,2.343,0,0,1-1.423-.462" fill="#fff"/>
    </g>
  </g>
</svg>
