<svg width="46" height="46" viewBox="0 0 46 46" fill="none" xmlns="http://www.w3.org/2000/svg">
<rect width="46" height="46" rx="10" fill="#FFBB00"/>
<path d="M23.3873 12.8601C20.191 12.8601 18.1207 14.1697 16.4954 16.5052C16.2005 16.9289 16.2914 17.5097 16.7027 17.8216L18.4302 19.1314C18.8455 19.4464 19.4365 19.3727 19.7617 18.9653C20.7648 17.7087 21.5089 16.9852 23.0757 16.9852C24.3076 16.9852 25.8314 17.778 25.8314 18.9726C25.8314 19.8757 25.0859 20.3395 23.8695 21.0214C22.451 21.8167 20.5739 22.8064 20.5739 25.2823V25.6743C20.5739 26.2051 21.0042 26.6354 21.535 26.6354H24.437C24.9678 26.6354 25.3981 26.2051 25.3981 25.6743V25.4431C25.3981 23.7268 30.4143 23.6553 30.4143 19.0109C30.4144 15.5133 26.7863 12.8601 23.3873 12.8601ZM22.986 27.815C21.4565 27.815 20.2121 29.0594 20.2121 30.5889C20.2121 32.1184 21.4565 33.3628 22.986 33.3628C24.5155 33.3628 25.7599 32.1184 25.7599 30.5889C25.7599 29.0594 24.5155 27.815 22.986 27.815Z" fill="white"/>
</svg>
