<svg xmlns="http://www.w3.org/2000/svg" width="146" height="146" viewBox="0 0 146 146">
  <g id="Grupo_42" data-name="Grupo 42" transform="translate(-886 -1578)">
    <circle id="Elipse_3" data-name="Elipse 3" cx="73" cy="73" r="73" transform="translate(886 1578)" fill="#4800ff"/>
    <path id="FontAwsome_user-shield_" data-name="FontAwsome (user-shield)" d="M66.849,29.122,54.474,24.288a3.329,3.329,0,0,0-2.385,0L39.714,29.122a2.9,2.9,0,0,0-1.9,2.675c0,11.988,7.38,20.281,14.276,22.978a3.333,3.333,0,0,0,2.385,0c5.511-2.148,14.276-9.6,14.276-22.978A2.9,2.9,0,0,0,66.849,29.122ZM53.281,49.672V29.358L63.54,33.365A19.215,19.215,0,0,1,53.281,49.672ZM24.062,27.5a13.75,13.75,0,1,0-13.75-13.75A13.749,13.749,0,0,0,24.062,27.5Zm10.313,4.3a6.1,6.1,0,0,1,.118-.773c-.269-.011-.526-.086-.806-.086H31.894a18.7,18.7,0,0,1-15.662,0H14.437A14.441,14.441,0,0,0,0,45.375v4.469A5.158,5.158,0,0,0,5.156,55H42.969a5.287,5.287,0,0,0,2.063-.43A28.862,28.862,0,0,1,34.375,31.8Z" transform="translate(925 1624)" fill="#fff"/>
  </g>
</svg>
