<svg width="46" height="46" viewBox="0 0 46 46" fill="none" xmlns="http://www.w3.org/2000/svg">
<rect width="46" height="46" rx="10" fill="#FFBB00"/>
<path d="M27.7582 12.3655H18.3406C17.2264 12.3655 16.3225 13.2694 16.3225 14.3835V31.8734C16.3225 32.9876 17.2264 33.8915 18.3406 33.8915H27.7582C28.8723 33.8915 29.7763 32.9876 29.7763 31.8734V14.3835C29.7763 13.2694 28.8723 12.3655 27.7582 12.3655ZM23.0494 32.5461C22.3052 32.5461 21.704 31.9449 21.704 31.2007C21.704 30.4566 22.3052 29.8554 23.0494 29.8554C23.7936 29.8554 24.3948 30.4566 24.3948 31.2007C24.3948 31.9449 23.7936 32.5461 23.0494 32.5461ZM27.7582 28.0055C27.7582 28.283 27.5312 28.51 27.2537 28.51H18.8451C18.5676 28.51 18.3406 28.283 18.3406 28.0055V14.8881C18.3406 14.6106 18.5676 14.3835 18.8451 14.3835H27.2537C27.5312 14.3835 27.7582 14.6106 27.7582 14.8881V28.0055Z" fill="white"/>
</svg>
