<svg xmlns="http://www.w3.org/2000/svg" width="146" height="146" viewBox="0 0 146 146">
  <g id="Grupo_41" data-name="Grupo 41" transform="translate(-1453 -1578)">
    <circle id="Elipse_4" data-name="Elipse 4" cx="73" cy="73" r="73" transform="translate(1453 1578)" fill="#fb0"/>
    <path id="FontAwsome_chart-line_" data-name="FontAwsome (chart-line)" d="M64.583,105.667H8.333V66.083A2.083,2.083,0,0,0,6.25,64H2.083A2.083,2.083,0,0,0,0,66.083v43.75A4.167,4.167,0,0,0,4.167,114H64.583a2.083,2.083,0,0,0,2.083-2.083V107.75A2.083,2.083,0,0,0,64.583,105.667Zm-4.167-37.5H45.044a3.125,3.125,0,0,0-2.21,5.335l4.219,4.219L37.5,87.275l-9.553-9.553a4.165,4.165,0,0,0-5.892,0l-8.944,8.944a2.083,2.083,0,0,0,0,2.947l2.945,2.945a2.083,2.083,0,0,0,2.947,0l6-6,9.553,9.553a4.165,4.165,0,0,0,5.892,0l12.5-12.5,4.219,4.219a3.125,3.125,0,0,0,5.335-2.21V70.25A2.081,2.081,0,0,0,60.417,68.167Z" transform="translate(1493 1562)" fill="#fff"/>
  </g>
</svg>
