<svg xmlns="http://www.w3.org/2000/svg" width="25" height="25.005" viewBox="0 0 25 25.005">
  <path id="FontAwsome_globe_" data-name="FontAwsome (globe)" d="M16.964,15.663C16.233,11.161,14.509,8,12.5,8s-3.731,3.161-4.462,7.663Zm-9.3,4.84a31.6,31.6,0,0,0,.166,3.226h9.342a31.6,31.6,0,0,0,.166-3.226,31.6,31.6,0,0,0-.166-3.226H7.829A31.6,31.6,0,0,0,7.663,20.5Zm16.369-4.84a12.529,12.529,0,0,0-7.965-7.139,17.015,17.015,0,0,1,2.521,7.139ZM8.933,8.524a12.521,12.521,0,0,0-7.96,7.139H6.418A16.946,16.946,0,0,1,8.933,8.524Zm15.638,8.752H18.789c.106,1.059.166,2.143.166,3.226s-.06,2.168-.166,3.226h5.777A12.4,12.4,0,0,0,25,20.5a12.611,12.611,0,0,0-.429-3.226ZM6.05,20.5c0-1.084.06-2.168.166-3.226H.434a12.222,12.222,0,0,0,0,6.453H6.211C6.11,22.67,6.05,21.586,6.05,20.5Zm1.991,4.84c.731,4.5,2.455,7.663,4.462,7.663s3.731-3.161,4.462-7.663Zm8.031,7.139a12.541,12.541,0,0,0,7.965-7.139H18.592A17.015,17.015,0,0,1,16.072,32.481ZM.973,25.342a12.529,12.529,0,0,0,7.965,7.139,17.015,17.015,0,0,1-2.521-7.139H.973Z" transform="translate(0 -8)" fill="#5584eb"/>
</svg>
