<svg width="46" height="46" viewBox="0 0 46 46" fill="none" xmlns="http://www.w3.org/2000/svg">
<rect width="46" height="46" rx="10" fill="#FFBB00"/>
<path d="M33.0131 14.344H13.7929C12.7318 14.344 11.8708 15.2049 11.8708 16.266V30.3609C11.8708 31.422 12.7318 32.2829 13.7929 32.2829H33.0131C34.0742 32.2829 34.9352 31.422 34.9352 30.3609V16.266C34.9352 15.2049 34.0742 14.344 33.0131 14.344ZM18.9183 18.188C20.3318 18.188 21.481 19.3373 21.481 20.7507C21.481 22.1642 20.3318 23.3134 18.9183 23.3134C17.5048 23.3134 16.3556 22.1642 16.3556 20.7507C16.3556 19.3373 17.5048 18.188 18.9183 18.188ZM23.403 27.67C23.403 28.0945 23.0026 28.4388 22.5061 28.4388H15.3305C14.834 28.4388 14.4335 28.0945 14.4335 27.67V26.9012C14.4335 25.6279 15.6388 24.5948 17.1244 24.5948H17.3246C17.8171 24.799 18.3537 24.9151 18.9183 24.9151C19.4829 24.9151 20.0234 24.799 20.512 24.5948H20.7122C22.1977 24.5948 23.403 25.6279 23.403 26.9012V27.67ZM32.3725 25.5558C32.3725 25.732 32.2283 25.8761 32.0521 25.8761H26.286C26.1099 25.8761 25.9657 25.732 25.9657 25.5558V24.9151C25.9657 24.7389 26.1099 24.5948 26.286 24.5948H32.0521C32.2283 24.5948 32.3725 24.7389 32.3725 24.9151V25.5558ZM32.3725 22.9931C32.3725 23.1693 32.2283 23.3134 32.0521 23.3134H26.286C26.1099 23.3134 25.9657 23.1693 25.9657 22.9931V22.3524C25.9657 22.1762 26.1099 22.0321 26.286 22.0321H32.0521C32.2283 22.0321 32.3725 22.1762 32.3725 22.3524V22.9931ZM32.3725 20.4304C32.3725 20.6066 32.2283 20.7507 32.0521 20.7507H26.286C26.1099 20.7507 25.9657 20.6066 25.9657 20.4304V19.7897C25.9657 19.6135 26.1099 19.4694 26.286 19.4694H32.0521C32.2283 19.4694 32.3725 19.6135 32.3725 19.7897V20.4304Z" fill="white"/>
</svg>
