<svg xmlns="http://www.w3.org/2000/svg" xmlns:xlink="http://www.w3.org/1999/xlink" width="70" height="70" viewBox="0 0 70 70">
  <defs>
    <clipPath id="clip-path">
      <rect id="Rectángulo_2" data-name="Rectángulo 2" width="70" height="70" fill="none"/>
    </clipPath>
  </defs>
  <g id="Grupo_25" data-name="Grupo 25" transform="translate(0 0)">
    <g id="Grupo_1" data-name="Grupo 1" transform="translate(0 0)" clip-path="url(#clip-path)">
      <path id="Trazado_1" data-name="Trazado 1" d="M70,34.1A34.419,34.419,0,0,1,19.027,63.954L0,70,6.2,51.706A33.739,33.739,0,0,1,1.273,34.1,34.365,34.365,0,0,1,70,34.1M35.638,5.431A28.81,28.81,0,0,0,6.746,34.1a28.367,28.367,0,0,0,5.5,16.809L8.641,61.553l11.1-3.527A28.923,28.923,0,0,0,64.528,34.1,28.812,28.812,0,0,0,35.638,5.431M52.991,41.953c-.213-.349-.775-.558-1.614-.976s-4.986-2.442-5.758-2.719-1.336-.418-1.9.417-2.176,2.719-2.669,3.277-.981.627-1.823.209a23.029,23.029,0,0,1-6.776-4.147,25.406,25.406,0,0,1-4.687-5.789c-.489-.835-.049-1.287.368-1.7.38-.376.844-.976,1.265-1.462a5.725,5.725,0,0,0,.843-1.4,1.518,1.518,0,0,0-.072-1.462c-.209-.417-1.9-4.531-2.6-6.206s-1.4-1.608-1.9-1.608a12.129,12.129,0,0,0-1.4.146,4.759,4.759,0,0,0-2.459,1.045,9.34,9.34,0,0,0-2.947,6.969c0,4.113,3.015,8.089,3.437,8.643S28.138,44.463,36.7,47.81s8.564,2.229,10.11,2.088,4.982-2.02,5.685-3.972a6.955,6.955,0,0,0,.494-3.972" transform="translate(0 0)" fill="#fff" fill-rule="evenodd"/>
    </g>
  </g>
</svg>
