<svg xmlns="http://www.w3.org/2000/svg" width="146" height="146" viewBox="0 0 146 146">
  <g id="Grupo_43" data-name="Grupo 43" transform="translate(-318 -1578)">
    <circle id="Elipse_2" data-name="Elipse 2" cx="73" cy="73" r="73" transform="translate(318 1578)" fill="#12d57d"/>
    <path id="FontAwsome_pencil-ruler_" data-name="FontAwsome (pencil-ruler)" d="M11.754,26.206,26.21,11.751,21.471,7.012l-6.626,6.626a.851.851,0,0,1-1.2,0l-1.2-1.2a.851.851,0,0,1,0-1.2L19.063,4.6,15.449.989a3.407,3.407,0,0,0-4.819,0L.993,10.626a3.408,3.408,0,0,0,0,4.819l10.76,10.761Zm41.73-12.547a5.16,5.16,0,0,0,0-7.3L48.622,1.5a5.162,5.162,0,0,0-7.3,0L36.38,6.444,48.54,18.6l4.943-4.945ZM33.949,8.876l-31.9,31.9L.03,52.317a2.28,2.28,0,0,0,2.641,2.638l11.542-2.024,31.9-31.9ZM54,39.537l-3.614-3.614-6.626,6.626a.851.851,0,0,1-1.2,0l-1.2-1.2a.853.853,0,0,1,0-1.2l6.626-6.626-4.742-4.742L28.777,43.228,39.541,53.991a3.407,3.407,0,0,0,4.819,0L54,44.356a3.407,3.407,0,0,0,0-4.819Z" transform="translate(364.005 1623.01)" fill="#fff"/>
  </g>
</svg>
