<svg id="Icon_Redes" data-name="Icon Redes" xmlns="http://www.w3.org/2000/svg" xmlns:xlink="http://www.w3.org/1999/xlink" width="316.352" height="47.959" viewBox="0 0 316.352 47.959">
  <defs>
    <clipPath id="clip-path">
      <rect id="Rectángulo_75" data-name="Rectángulo 75" width="316.352" height="47.959" fill="none"/>
    </clipPath>
  </defs>
  <g id="Grupo_66" data-name="Grupo 66" clip-path="url(#clip-path)">
    <path id="Trazado_84" data-name="Trazado 84" d="M328.429,23.924A23.924,23.924,0,1,1,304.5,0a23.924,23.924,0,0,1,23.924,23.924" transform="translate(-146.329)" fill="#12d57d"/>
    <path id="Trazado_85" data-name="Trazado 85" d="M304.935,36.6c0-1.7,0-3.408,0-5.112A7.311,7.311,0,0,1,311,24.464a8.835,8.835,0,0,1,1.281-.1q4.967-.012,9.935,0a7.287,7.287,0,0,1,7.265,7.254q0,4.969-.01,9.937a7.285,7.285,0,0,1-7.33,7.339q-4.92.01-9.84,0a7.288,7.288,0,0,1-7.352-7.367c0-1.64,0-3.28,0-4.921Zm12.27-9.685c-1.624,0-3.248,0-4.872,0a4.76,4.76,0,0,0-4.837,4.843q-.013,4.849-.012,9.7a4.759,4.759,0,0,0,4.875,4.9q4.848.011,9.7,0a4.759,4.759,0,0,0,4.873-4.9q0-4.873-.013-9.747a4.759,4.759,0,0,0-4.791-4.792c-1.64-.006-3.28,0-4.92,0" transform="translate(-159.029 -12.704)" fill="#fff"/>
    <path id="Trazado_86" data-name="Trazado 86" d="M323.62,49.413a6.383,6.383,0,1,1,6.365-6.437,6.406,6.406,0,0,1-6.365,6.437m3.8-6.359a3.8,3.8,0,1,0-3.831,3.791,3.779,3.779,0,0,0,3.831-3.791" transform="translate(-165.439 -19.112)" fill="#fff"/>
    <path id="Trazado_87" data-name="Trazado 87" d="M343.722,35.006a1.592,1.592,0,0,1-1.582,1.618,1.62,1.62,0,0,1-1.649-1.611,1.653,1.653,0,0,1,1.641-1.633,1.628,1.628,0,0,1,1.59,1.625" transform="translate(-177.573 -17.409)" fill="#fff"/>
    <path id="Trazado_88" data-name="Trazado 88" d="M609.009,24.382a23.928,23.928,0,0,1-47.848,0,23.928,23.928,0,0,1,47.848,0" transform="translate(-292.657 -0.458)" fill="#12d57d"/>
    <path id="Trazado_89" data-name="Trazado 89" d="M604.639,31.523h-13.19a5.44,5.44,0,0,0-5.44,5.44v6.8a5.44,5.44,0,0,0,5.44,5.44h13.19a5.44,5.44,0,0,0,5.44-5.44v-6.8a5.44,5.44,0,0,0-5.44-5.44m-9.431,13.463V35.843l7.446,4.568-7.446,4.575" transform="translate(-305.615 -16.44)" fill="#fff"/>
    <path id="Trazado_90" data-name="Trazado 90" d="M188.138,23.924A23.924,23.924,0,1,1,164.214,0a23.924,23.924,0,0,1,23.924,23.924" transform="translate(-73.164)" fill="#12d57d"/>
    <path id="Trazado_91" data-name="Trazado 91" d="M168.665,40.983a6.2,6.2,0,0,1-1.745-1.446,5.037,5.037,0,0,1-1.1-2.842c-.033-.646.113-.736.7-.5a1.449,1.449,0,0,0,.665.2c.055-.166-.09-.221-.159-.31a5.054,5.054,0,0,1-.728-5.417c.311-.721.47-.734.994-.134a13.466,13.466,0,0,0,8.258,4.516c.154.025.31.034.466.047.333.028.49-.123.494-.462a7.855,7.855,0,0,1,.052-1.169,5.131,5.131,0,0,1,7.846-3.491,4.236,4.236,0,0,1,.5.349,1.073,1.073,0,0,0,1.1.189,10.593,10.593,0,0,0,1.948-.8c.164-.088.35-.2.524-.056s.055.347,0,.519a5.906,5.906,0,0,1-1.1,1.76,4.034,4.034,0,0,0,1.268-.333c.176-.052.367-.183.516.01s-.007.355-.111.507a10.953,10.953,0,0,1-1.706,1.865,1.5,1.5,0,0,0-.5,1.106c-.3,5.518-2.705,9.783-7.612,12.475a13.184,13.184,0,0,1-5.944,1.531,14.3,14.3,0,0,1-7.2-1.572c-.167-.086-.33-.18-.488-.28s-.32-.227-.268-.448a.439.439,0,0,1,.462-.325c.593-.031,1.185-.018,1.778-.1a9.512,9.512,0,0,0,3.524-1.212c.125-.072.344-.111.308-.3-.027-.146-.227-.138-.357-.177a5.089,5.089,0,0,1-3.3-2.845c-.338-.731-.263-.841.547-.828.076,0,.153-.009.387-.024" transform="translate(-86.212 -15.203)" fill="#fff"/>
    <path id="Trazado_92" data-name="Trazado 92" d="M47.848,24.157A23.924,23.924,0,1,1,23.924.233,23.924,23.924,0,0,1,47.848,24.157" transform="translate(0 -0.122)" fill="#12d57d"/>
    <path id="Trazado_93" data-name="Trazado 93" d="M47.079,42.629c1.812-2.323,4.151-2.491,6.622-1.971a4.679,4.679,0,0,1,3.557,3.563,12.377,12.377,0,0,1,.479,3.566c.012,2.674.009,5.348.009,8.023,0,.7-.252.952-.963.954q-1.643,0-3.285,0c-.676,0-.929-.256-.929-.937,0-2.487,0-4.973,0-7.46a5.774,5.774,0,0,0-.271-1.847,2.236,2.236,0,0,0-1.932-1.678,2.479,2.479,0,0,0-2.623,1.152,4.69,4.69,0,0,0-.683,2.5c-.013,2.424,0,4.848,0,7.272,0,.769-.234,1-1.011,1-1.033,0-2.065,0-3.1,0-.68,0-.956-.262-.956-.924q-.005-7.131,0-14.263c0-.641.271-.9.925-.905q1.618-.011,3.237,0c.68,0,.914.251.925.945,0,.293,0,.586,0,1.012" transform="translate(-21.898 -21.077)" fill="#fdffff"/>
    <path id="Trazado_94" data-name="Trazado 94" d="M26.637,49.014q0-3.5,0-6.991c0-.824.243-1.076,1.049-1.079q1.5-.006,3,0c.737,0,1.017.287,1.018,1.028q0,7.014,0,14.029c0,.742-.289,1.033-1.015,1.035q-1.5.006-3,0c-.794,0-1.051-.266-1.052-1.078q0-3.472,0-6.944" transform="translate(-13.891 -21.351)" fill="#fdffff"/>
    <path id="Trazado_95" data-name="Trazado 95" d="M25.078,27.661a3.277,3.277,0,1,1,3.273,3.278,3.274,3.274,0,0,1-3.273-3.278" transform="translate(-13.079 -12.714)" fill="#fdffff"/>
    <path id="Trazado_96" data-name="Trazado 96" d="M468.719,23.924A23.924,23.924,0,1,1,444.8,0a23.924,23.924,0,0,1,23.924,23.924" transform="translate(-219.493)" fill="#12d57d"/>
    <path id="Trazado_97" data-name="Trazado 97" d="M465.826,33.833h3.483c.853,0,1.093.273.986,1.116-.118.928-.239,1.856-.354,2.785-.075.612-.292.827-.9.834-.891.009-1.783,0-2.675,0-.168,0-.335.016-.556.027v.587q0,4.481,0,8.963c0,.66-.106.767-.757.768q-1.479,0-2.957,0c-.7,0-.833-.129-.831-.856q.009-4.317.024-8.634c0-.141-.008-.282,0-.423.025-.319-.1-.447-.434-.437-.625.019-1.252.01-1.878,0-.7-.007-.931-.236-.933-.923,0-1,0-2,0-3,0-.55.249-.8.8-.8.657-.008,1.315-.022,1.971,0,.361.015.448-.12.449-.459,0-1.188.015-2.377.067-3.563a5.091,5.091,0,0,1,5.211-5q1.431-.01,2.863,0a.7.7,0,0,1,.8.765q.021,1.313,0,2.628a.727.727,0,0,1-.8.782c-.578.017-1.158,0-1.736.012-1.137.022-1.731.475-1.823,1.582-.087,1.053-.019,2.118-.019,3.244" transform="translate(-238.879 -12.942)" fill="#fff"/>
  </g>
</svg>
