<svg width="46" height="46" viewBox="0 0 46 46" fill="none" xmlns="http://www.w3.org/2000/svg">
<rect width="46" height="46" rx="10" fill="#FFBB00"/>
<path d="M14.5562 29.3962L15.3169 28.5202C15.4683 28.3514 15.5475 28.1299 15.5373 27.9033V27.7594C15.5373 27.4399 15.3704 27.266 15.0444 27.266H12.5664C12.4742 27.266 12.3857 27.3027 12.3205 27.3679C12.2553 27.4331 12.2186 27.5216 12.2186 27.6138V28.3094C12.2186 28.4016 12.2553 28.4901 12.3205 28.5553C12.3857 28.6205 12.4742 28.6572 12.5664 28.6572H13.5589C13.3902 28.8271 13.2306 29.0057 13.0807 29.1923L12.8368 29.4966C12.6629 29.717 12.6086 29.937 12.7151 30.1435L12.7607 30.2274C12.8912 30.4778 13.0342 30.57 13.2933 30.57H13.4989C13.948 30.57 14.1919 30.676 14.1919 30.9651C14.1919 31.1703 14.0093 31.3225 13.5676 31.3225C13.3368 31.3207 13.1085 31.2746 12.8951 31.1868C12.6129 31.0182 12.3847 31.0347 12.2169 31.3225L11.9739 31.7272C11.8122 31.9937 11.8352 32.2367 12.0882 32.4202C12.4234 32.624 12.9742 32.8305 13.6967 32.8305C15.1817 32.8305 15.8051 31.8415 15.8051 30.9125C15.8038 30.2874 15.4087 29.6188 14.5562 29.3962V29.3962ZM33.4333 21.7015H19.5221C19.3376 21.7015 19.1607 21.7748 19.0302 21.9052C18.8998 22.0357 18.8265 22.2126 18.8265 22.3971V23.7882C18.8265 23.9727 18.8998 24.1496 19.0302 24.28C19.1607 24.4105 19.3376 24.4838 19.5221 24.4838H33.4333C33.6178 24.4838 33.7947 24.4105 33.9252 24.28C34.0556 24.1496 34.1289 23.9727 34.1289 23.7882V22.3971C34.1289 22.2126 34.0556 22.0357 33.9252 21.9052C33.7947 21.7748 33.6178 21.7015 33.4333 21.7015ZM33.4333 14.7459H19.5221C19.3376 14.7459 19.1607 14.8191 19.0302 14.9496C18.8998 15.08 18.8265 15.257 18.8265 15.4414V16.8326C18.8265 17.017 18.8998 17.194 19.0302 17.3244C19.1607 17.4548 19.3376 17.5281 19.5221 17.5281H33.4333C33.6178 17.5281 33.7947 17.4548 33.9252 17.3244C34.0556 17.194 34.1289 17.017 34.1289 16.8326V15.4414C34.1289 15.257 34.0556 15.08 33.9252 14.9496C33.7947 14.8191 33.6178 14.7459 33.4333 14.7459V14.7459ZM33.4333 28.6572H19.5221C19.3376 28.6572 19.1607 28.7304 19.0302 28.8609C18.8998 28.9913 18.8265 29.1682 18.8265 29.3527V30.7439C18.8265 30.9283 18.8998 31.1052 19.0302 31.2357C19.1607 31.3661 19.3376 31.4394 19.5221 31.4394H33.4333C33.6178 31.4394 33.7947 31.3661 33.9252 31.2357C34.0556 31.1052 34.1289 30.9283 34.1289 30.7439V29.3527C34.1289 29.1682 34.0556 28.9913 33.9252 28.8609C33.7947 28.7304 33.6178 28.6572 33.4333 28.6572ZM12.5664 18.9193H15.3487C15.4409 18.9193 15.5294 18.8826 15.5946 18.8174C15.6598 18.7522 15.6965 18.6637 15.6965 18.5715V17.8759C15.6965 17.7837 15.6598 17.6952 15.5946 17.63C15.5294 17.5648 15.4409 17.5281 15.3487 17.5281H14.6531V13.7025C14.6531 13.6103 14.6165 13.5218 14.5512 13.4566C14.486 13.3914 14.3976 13.3547 14.3053 13.3547H13.262C13.1975 13.3549 13.1344 13.3729 13.0795 13.4068C13.0247 13.4407 12.9804 13.4892 12.9516 13.5469L12.6038 14.2425C12.5773 14.2954 12.5648 14.3543 12.5674 14.4135C12.57 14.4727 12.5877 14.5302 12.6188 14.5806C12.6499 14.631 12.6933 14.6727 12.745 14.7016C12.7967 14.7305 12.855 14.7458 12.9142 14.7459H13.262V17.5281H12.5664C12.4742 17.5281 12.3857 17.5648 12.3205 17.63C12.2553 17.6952 12.2186 17.7837 12.2186 17.8759V18.5715C12.2186 18.6637 12.2553 18.7522 12.3205 18.8174C12.3857 18.8826 12.4742 18.9193 12.5664 18.9193ZM12.3964 25.8749H15.3487C15.4409 25.8749 15.5294 25.8383 15.5946 25.773C15.6598 25.7078 15.6965 25.6194 15.6965 25.5271V24.8316C15.6965 24.7393 15.6598 24.6509 15.5946 24.5856C15.5294 24.5204 15.4409 24.4838 15.3487 24.4838H13.6671C13.8102 24.0364 15.7686 23.6717 15.7686 22.0302C15.7686 20.7668 14.6818 20.3104 13.8354 20.3104C12.9068 20.3104 12.366 20.7451 12.0765 21.1255C11.8865 21.3685 11.9461 21.5967 12.1982 21.7937L12.5712 22.0928C12.8151 22.291 13.0494 22.2001 13.272 21.9867C13.3818 21.8791 13.5295 21.8191 13.6832 21.8198C13.828 21.8198 14.0867 21.8876 14.0867 22.2001C14.088 22.7531 11.8708 23.1496 11.8708 25.205V25.3789C11.8708 25.701 12.0917 25.8749 12.3964 25.8749Z" fill="white"/>
</svg>
