<svg width="50" height="14" viewBox="0 0 50 14" fill="none" xmlns="http://www.w3.org/2000/svg">
<path d="M39.115 6.88289C39.136 8.80889 39.123 10.7329 39.123 12.6549C39.123 13.1059 39.07 13.1569 38.609 13.1569C38.076 13.1599 37.541 13.1599 37.007 13.1569C36.59 13.1569 36.543 13.1119 36.543 12.7049C36.543 10.8369 36.549 8.96989 36.537 7.10089C36.537 6.78889 36.494 6.47589 36.437 6.16789C36.356 5.72289 36.054 5.46988 35.623 5.39888C34.84 5.26888 34.136 5.51689 33.48 5.92089C33.393 5.97489 33.359 6.16989 33.359 6.29989C33.35 7.87189 33.353 9.44389 33.353 11.0159C33.353 11.6079 33.346 12.1979 33.356 12.7879C33.361 13.0589 33.242 13.1629 32.978 13.1599C32.387 13.1489 31.796 13.1569 31.205 13.1549C30.863 13.1529 30.769 13.0569 30.769 12.7079C30.768 9.73488 30.768 6.76289 30.769 3.78989C30.769 3.47689 30.863 3.37889 31.177 3.37689C31.71 3.37189 32.242 3.37289 32.779 3.37589C33.117 3.37789 33.175 3.44088 33.183 3.77688C33.185 3.90588 33.197 4.03289 33.205 4.23788C33.38 4.12688 33.482 4.06489 33.584 3.99689C34.625 3.29089 35.781 3.11889 36.994 3.33389C38.105 3.52789 38.71 4.27088 38.935 5.32588C39.048 5.83688 39.109 6.36289 39.115 6.88289ZM49.704 2.70488L49.581 3.03788C49.552 3.12488 49.526 3.19988 49.509 3.26988C49.488 3.19788 49.466 3.12188 49.438 3.03788L49.321 2.70488H49.208L49.161 3.39289H49.245L49.265 3.09688C49.271 2.99288 49.276 2.87789 49.278 2.79289H49.28C49.301 2.87389 49.327 2.96289 49.359 3.05989L49.471 3.38888H49.538L49.659 3.05389C49.694 2.95889 49.721 2.87289 49.745 2.79289H49.747C49.747 2.87689 49.753 2.99488 49.76 3.08988L49.776 3.39289H49.866L49.823 2.70488H49.704ZM22.763 6.23289C22.82 8.41089 22.809 10.5929 22.822 12.7739C22.823 13.0649 22.717 13.1599 22.418 13.1619C21.903 13.1639 21.389 13.1629 20.875 13.1619C20.439 13.1619 20.385 13.1079 20.363 12.6779C20.361 12.6309 20.352 12.5849 20.34 12.4939C20.047 12.6569 19.798 12.8129 19.536 12.9399C18.621 13.3829 17.668 13.4239 16.706 13.1409C15.84 12.8829 15.31 12.2869 15.098 11.4119C14.945 10.7799 14.932 10.1449 15.059 9.51589C15.257 8.54189 15.914 8.00089 16.828 7.72689C17.713 7.45889 18.624 7.42889 19.538 7.43789C20.192 7.44589 20.193 7.43988 20.191 6.77688C20.191 6.60588 20.203 6.42988 20.172 6.26388C20.074 5.72988 19.716 5.39689 19.126 5.39689C18.138 5.39689 17.149 5.43888 16.162 5.49488C15.678 5.52388 15.614 5.49989 15.614 5.01089C15.614 4.66789 15.62 4.32389 15.612 3.98289C15.608 3.79189 15.683 3.66089 15.865 3.62289C17.398 3.29589 18.939 3.06989 20.494 3.45589C21.896 3.80089 22.725 4.77589 22.763 6.23289ZM20.252 10.6549C20.229 10.4279 20.247 10.1979 20.247 9.96789C20.247 9.67289 20.258 9.37688 20.239 9.08288C20.234 9.00888 20.133 8.87988 20.08 8.88188C19.484 8.90288 18.885 8.91889 18.293 8.99189C17.93 9.03789 17.664 9.30289 17.591 9.66489C17.523 10.0039 17.503 10.3619 17.531 10.7089C17.563 11.0889 17.837 11.3109 18.211 11.3749C18.812 11.4789 19.378 11.3619 19.938 11.1449C20.179 11.0529 20.282 10.9189 20.252 10.6549ZM48.216 6.77189C48.221 8.75389 48.219 10.7369 48.218 12.7189C48.218 13.1119 48.169 13.1569 47.77 13.1569C47.274 13.1599 46.78 13.1599 46.284 13.1569C45.858 13.1569 45.831 13.1319 45.809 12.7169C45.807 12.6679 45.802 12.6209 45.792 12.5729C45.79 12.5549 45.772 12.5439 45.743 12.4999C45.681 12.5279 45.624 12.5459 45.579 12.5779C44.915 13.0729 44.151 13.2659 43.34 13.3289C41.735 13.4589 40.508 12.4029 40.432 10.7949C40.413 10.3989 40.403 9.99489 40.462 9.60589C40.608 8.66789 41.186 8.04488 42.077 7.79388C42.749 7.60588 43.454 7.52588 44.149 7.44388C44.553 7.39488 44.968 7.42988 45.378 7.43588C45.558 7.44188 45.647 7.37989 45.637 7.19189C45.622 6.90889 45.648 6.61789 45.6 6.33789C45.493 5.71289 45.139 5.38789 44.507 5.38989C43.528 5.39589 42.549 5.43988 41.569 5.49488C41.077 5.52088 41.007 5.48189 41.007 4.97589C41.007 4.66189 41.008 4.34689 41.007 4.03289C41.006 3.78889 41.111 3.65289 41.361 3.59489C42.5 3.33789 43.65 3.19889 44.814 3.27189C45.301 3.30289 45.796 3.40988 46.26 3.56488C47.367 3.93388 47.978 4.74788 48.156 5.88788C48.201 6.18188 48.215 6.47889 48.216 6.77189ZM45.697 10.7459C45.685 10.4869 45.695 10.2309 45.693 9.97488C45.693 9.70088 45.688 9.42289 45.697 9.14689C45.701 8.95889 45.636 8.86389 45.433 8.87289C45.072 8.88089 44.707 8.85189 44.348 8.87989C43.145 8.97089 42.927 9.41789 42.912 10.4069C42.904 10.9889 43.175 11.3029 43.638 11.3819C44.281 11.4869 44.882 11.3539 45.467 11.0949C45.626 11.0239 45.704 10.9279 45.697 10.7459ZM13.201 0.00188509C12.648 0.00188509 12.096 0.00188509 11.543 0.00188509C11.128 0.00288509 11.089 0.043885 11.089 0.463885C11.089 2.49289 11.089 4.52288 11.089 6.55188C11.089 8.61888 11.089 10.6859 11.089 12.7549C11.089 13.0979 11.148 13.1549 11.486 13.1569C12.028 13.1599 12.571 13.1569 13.115 13.1569C13.626 13.1569 13.673 13.1119 13.673 12.6079C13.673 9.12989 13.673 5.65189 13.673 2.17489C13.673 1.60289 13.674 1.03189 13.673 0.459885C13.672 0.0708853 13.6 0.00288509 13.201 0.00188509ZM48.592 2.77989H48.802V3.39289H48.892V2.77989H49.102V2.70488H48.592V2.77989ZM29.326 3.25988C28.582 3.29188 27.91 3.52588 27.308 3.96088C27.226 4.02088 27.144 4.07589 27.021 4.16389C27.011 4.02689 27 3.94588 27 3.86388C26.992 3.45388 26.92 3.37788 26.519 3.37788C26.002 3.37588 25.49 3.37689 24.975 3.37689C24.504 3.37789 24.426 3.45388 24.426 3.92288C24.426 5.23688 24.426 6.55288 24.426 7.86688C24.426 9.46088 24.425 11.0519 24.426 12.6409C24.426 13.0629 24.519 13.1569 24.92 13.1569C25.462 13.1599 26.007 13.1599 26.55 13.1569C26.988 13.1569 27.058 13.0909 27.058 12.6389C27.059 10.5259 27.061 8.40989 27.054 6.29189C27.054 6.08289 27.115 5.96389 27.307 5.87289C27.943 5.57389 28.595 5.34989 29.31 5.37889C29.572 5.38989 29.699 5.29088 29.693 5.01388C29.682 4.54588 29.684 4.08088 29.692 3.61388C29.693 3.35888 29.579 3.24988 29.326 3.25988ZM2.339 0.00288454C1.834 -0.000115463 1.329 -0.00211411 0.823 0.0038859C0.293 0.0118859 0 0.313885 0 0.845885C0 2.80889 0 4.77288 0 6.73588C0 8.72888 0 10.7189 0 12.7119C0 13.0609 0.047 13.1079 0.397 13.1079C0.911 13.1119 1.426 13.1119 1.94 13.1079C2.48 13.1039 2.751 12.8349 2.751 12.2979C2.751 8.34289 2.751 4.38589 2.751 0.431885C2.752 0.0848854 2.679 0.00588454 2.339 0.00288454ZM8.019 8.97289C6.915 7.81889 5.557 7.18388 4.076 7.03688C3.598 7.02788 3.594 7.02788 3.607 7.38888C3.612 7.52188 3.638 7.65289 3.658 7.78489C3.923 9.53989 4.781 10.9379 6.209 11.9829C7.145 12.6709 8.204 13.0279 9.357 13.1359C9.7 13.1689 9.758 13.1449 9.724 12.8089C9.577 11.3449 9.044 10.0459 8.019 8.97289ZM9.365 0.034886C9.234 0.055886 9.098 0.0478851 8.968 0.0678851C7.466 0.306885 6.191 0.971884 5.177 2.11088C4.248 3.15288 3.732 4.38188 3.61 5.76988C3.579 6.13188 3.599 6.13289 3.98 6.18189C4.503 6.05289 5.047 5.97388 5.547 5.78388C8.044 4.83588 9.41 2.99589 9.725 0.355885C9.765 0.0208852 9.709 -0.017114 9.365 0.034886Z" fill="white"/>
</svg>
