<svg id="logos_empresas" data-name="logos empresas" xmlns="http://www.w3.org/2000/svg" xmlns:xlink="http://www.w3.org/1999/xlink" width="1751.264" height="67.5" viewBox="0 0 1751.264 67.5">
  <defs>
    <clipPath id="clip-path">
      <rect id="Rectángulo_39" data-name="Rectángulo 39" width="1751.264" height="67.5" fill="none"/>
    </clipPath>
  </defs>
  <g id="Grupo_29" data-name="Grupo 29" clip-path="url(#clip-path)">
    <path id="Trazado_15" data-name="Trazado 15" d="M1232.922,59.52c-1.3-.007-2.6-.021-3.9-.021q-12.841,0-25.683,0h-1V51.885h21.945c1,0,1,0,1-.956V8.6c0-.965,0-.966-.987-.966h-42.743V22.887h-7.658V0h59.035Z" fill="gray"/>
    <path id="Trazado_16" data-name="Trazado 16" d="M1130.722,59.489h-7.06V30.416h9.251q3.168,8.94,6.356,17.933l.165-.007q.813-2.295,1.626-4.59c1.49-4.237,2.988-8.471,4.452-12.718a.841.841,0,0,1,.969-.675c2.8.03,5.591.014,8.457.014V59.488H1147.9V42.667l-.183-.049c-.094.217-.2.43-.28.654-1.8,5.169-3.617,10.336-5.388,15.517a.923.923,0,0,1-1.08.747c-1.108-.042-2.219-.045-3.327,0a.924.924,0,0,1-1.077-.75c-1.8-5.2-3.633-10.384-5.459-15.573a1.05,1.05,0,0,0-.381-.555Z" fill="gray"/>
    <path id="Trazado_17" data-name="Trazado 17" d="M1085.834,59.481h-7.554V48.016c-.315-.02-.549-.047-.783-.047-3.256,0-6.511.014-9.767-.016-.646-.006-.812.2-.806.824.029,3.25.014,6.5.014,9.751v.928h-7.563V30.417h7.563v.811q0,4.767,0,9.534c0,.418-.009.736.584.732,3.472-.024,6.945-.014,10.417-.018a2.619,2.619,0,0,0,.315-.051V30.411h7.584Z" fill="gray"/>
    <path id="Trazado_18" data-name="Trazado 18" d="M1104.851,29.876a13.914,13.914,0,0,1,14.2,13.013,16.344,16.344,0,0,1-2.6,11.277,13.174,13.174,0,0,1-10.274,5.774,13.813,13.813,0,0,1-10.984-3.587,14,14,0,0,1-4.248-8.02,16.909,16.909,0,0,1,1.439-11.024,13.02,13.02,0,0,1,10.314-7.246c.714-.1,1.437-.126,2.156-.187m-6.546,15.257a9.986,9.986,0,0,0,1.1,4.85,5.83,5.83,0,0,0,5.036,3.352,5.962,5.962,0,0,0,5.775-3.106,9.6,9.6,0,0,0,1.273-4.6,10.235,10.235,0,0,0-1.443-6.215,6.084,6.084,0,0,0-10.444.169,10.285,10.285,0,0,0-1.3,5.554" fill="gray"/>
    <path id="Trazado_19" data-name="Trazado 19" d="M1193.515,47.866h-12.078v5.121h13.232v6.476h-20.707V30.419h20.71v6.467h-13.234v4.589h12.077Z" fill="gray"/>
    <rect id="Rectángulo_34" data-name="Rectángulo 34" width="7.535" height="29.019" transform="translate(1160.645 30.433)" fill="gray"/>
    <path id="Trazado_20" data-name="Trazado 20" d="M219.752,15.6c2.541.2,5.536-.219,8.546.425A13.881,13.881,0,0,1,236.264,38.1c-.731.93-1.035,1.449-.072,2.479,4.557,4.876,4.115,10.591,1.939,16.158s-6.964,7.909-12.728,8.155c-4.183.178-8.379.071-12.568.023-3.271-.037-5.126-1.9-5.132-5.168q-.033-19.473,0-38.947c.005-3.427,1.821-5.172,5.31-5.2,2.1-.018,4.19,0,6.74,0M217.3,49.507c0,5.356,0,5.356,5.377,5.356.67,0,1.339.01,2.008,0a4.889,4.889,0,0,0,5.155-4.942,5.149,5.149,0,0,0-5.157-5.783c-7.383-.479-7.383-.479-7.383,5.371m0-19.468c0,4.689,0,4.689,4.8,4.689.753,0,1.508.023,2.26-.006a5.068,5.068,0,0,0,4.879-4.5c.143-2.189-1.8-4.375-4.318-4.743a21.145,21.145,0,0,0-3-.109c-4.613-.011-4.613-.005-4.613,4.669" fill="gray"/>
    <path id="Trazado_21" data-name="Trazado 21" d="M245.653,39.508c0-6.124-.013-12.249,0-18.373.013-4.5,1.589-6.089,5.993-6.092,6.8,0,13.6.074,20.4-.042,2.346-.04,3.2.876,3.082,3.106-.086,1.673-.072,3.357,0,5.032.089,2.159-.913,3.009-3.029,2.979-4.447-.063-8.9.04-13.345-.049-1.661-.033-2.138.551-2.162,2.179-.092,6.126-.147,6.125,6.03,6.125,3.021,0,6.044.037,9.065-.012,1.991-.032,2.96.81,2.9,2.849-.056,1.845-.043,3.692,0,5.537.041,1.9-.8,2.713-2.742,2.678-4.2-.075-8.395.056-12.589-.057-1.9-.052-2.687.413-2.672,2.508.041,5.977-.05,5.978,5.909,5.978,3.357,0,6.719.1,10.07-.038,2.143-.092,2.845.714,2.669,2.778-.149,1.749-.053,3.521-.026,5.282.023,1.475-.648,2.116-2.135,2.111-7.638-.028-15.277.03-22.914-.042-2.575-.024-4.38-1.927-4.44-4.807-.123-5.87-.048-11.744-.055-17.617q0-1.007,0-2.013" fill="gray"/>
    <path id="Trazado_22" data-name="Trazado 22" d="M312.712,64.93c-5.174-.111-4.7,1.05-6.317-4.824-1.169-4.235-1.147-4.241-5.625-4.241-6.294,0-6.331-.01-7.957,6.252-.509,1.96-1.365,3.1-3.621,2.847a45.817,45.817,0,0,0-4.777-.036c-2.86-.022-3.355-.663-2.607-3.494q3.826-14.5,7.685-28.983c1.11-4.188,2.2-8.38,3.327-12.563.781-2.906,2.17-3.981,5.192-4.1,7.3-.278,7.811.065,9.684,7.041q5.152,19.184,10.24,38.384c.79,2.966.2,3.7-2.959,3.712-.755,0-1.51,0-2.265,0M300.1,28.186l-.629-.075c-.77,3.891-1.582,7.775-2.3,11.677-1.182,6.426-2.314,5.458,4.69,5.54.168,0,.336-.011.5,0,.966.037,1.114-.537.958-1.307q-1.605-7.916-3.222-15.83" fill="gray"/>
    <path id="Trazado_23" data-name="Trazado 23" d="M340.311,61.4c.032,1.95-.622,2.614-2.616,2.62-7.792.024-7.792.085-7.792-7.755,0-8.969-.062-17.938.045-26.906.027-2.181-.571-3.3-2.828-3.1-1.913.174-3.855-.036-5.783,0-1.8.034-2.577-.47-2.478-2.309.1-1.922.057-3.855.015-5.782-.03-1.438.482-2.139,2.046-2.133q14.214.054,28.428-.02c1.458-.009,1.963.531,1.94,1.9-.036,2.095-.059,4.192.008,6.286.048,1.53-.618,2.1-2.1,2.063-2.1-.059-4.2.174-6.286,0-2.189-.183-2.7.687-2.661,2.7.109,5.446-.022,27.074.067,32.437" fill="gray"/>
    <path id="Trazado_24" data-name="Trazado 24" d="M14.142,46.09c-.272.949-.518,1.87-.734,2.749Q13,50.5,12.658,51.852c-.223.884-.381,1.594-.469,2.114a2.039,2.039,0,0,1-1.745,1.691,5.206,5.206,0,0,1-2.637-.2A6.174,6.174,0,0,1,5.36,53.931a3.825,3.825,0,0,1-1.137-2.809,22.163,22.163,0,0,1,.693-4.377c.454-1.988,1.11-4.347,1.951-7.011.834-2.644,1.845-5.557,3-8.656,1-2.664,2.115-5.346,3.329-7.989a2.728,2.728,0,0,1,2.165-1.572,16.266,16.266,0,0,1,5.577.184A1.553,1.553,0,0,1,22,23.846c-1.016,2.271-1.953,4.535-2.79,6.739-.677,1.786-1.327,3.552-1.939,5.27a.2.2,0,0,0,.275.252,19.768,19.768,0,0,0,2.412-1.326,17.7,17.7,0,0,0,3.5-2.947,14.643,14.643,0,0,0,2.5-3.769,10.482,10.482,0,0,0,.943-4.408,5.452,5.452,0,0,0-1.652-4.407,7.07,7.07,0,0,0-4.647-1.4,11.188,11.188,0,0,0-5.712,1.483,17.063,17.063,0,0,0-4.452,3.688,17.945,17.945,0,0,0-2.881,4.6,10.978,10.978,0,0,0-1.018,4.144,1.673,1.673,0,0,1-1.235,1.691,3.378,3.378,0,0,1-2.258-.1A4.828,4.828,0,0,1,.955,31.7,5.306,5.306,0,0,1,0,28.388,9.34,9.34,0,0,1,1.388,24.07a18.086,18.086,0,0,1,4-4.812,23.76,23.76,0,0,1,6.529-3.94,23.129,23.129,0,0,1,8.963-1.646,24.615,24.615,0,0,1,5.665.662,17.677,17.677,0,0,1,5.045,2.006,11.8,11.8,0,0,1,3.642,3.352,8.046,8.046,0,0,1,1.419,4.7A11.589,11.589,0,0,1,35.4,29.713a15.454,15.454,0,0,1-3.35,4.357,21.863,21.863,0,0,1-4.9,3.346A32.353,32.353,0,0,1,22.3,39.391a.174.174,0,0,0-.142.2c.037.844.1,1.676.181,2.48.1.922.223,1.821.378,2.673s.335,1.654.543,2.427c.162.6.342,1.18.536,1.731.123.352.253.7.385,1.02a19.371,19.371,0,0,0,.867,1.854,16.019,16.019,0,0,0,.982,1.6,13.413,13.413,0,0,0,1.078,1.351,11.4,11.4,0,0,0,1.158,1.1,10.07,10.07,0,0,0,1.222.864,9.126,9.126,0,0,0,1.277.632,8.68,8.68,0,0,0,1.328.413,9.038,9.038,0,0,0,1.382.2,9.545,9.545,0,0,0,1.442-.021,10.651,10.651,0,0,0,1.5-.243,12.57,12.57,0,0,0,1.559-.479,14.577,14.577,0,0,0,1.606-.724q.306-.159.614-.337a1.491,1.491,0,0,1,1.728,2.414q-.425.372-.85.722c-.683.56-1.369,1.08-2.038,1.544-.637.442-1.283.852-1.921,1.216-.32.183-.655.364-1,.537a19.8,19.8,0,0,1-1.973.872,16.9,16.9,0,0,1-1.945.6,14.549,14.549,0,0,1-1.908.33,13.03,13.03,0,0,1-1.331.069c-.177,0-.353,0-.53-.011a11.848,11.848,0,0,1-1.794-.214c-.29-.057-.581-.126-.866-.206s-.559-.167-.842-.271a11.517,11.517,0,0,1-1.6-.726,12.227,12.227,0,0,1-1.477-.956,13.073,13.073,0,0,1-1.113-.941A14.637,14.637,0,0,1,19.5,59.787a16.859,16.859,0,0,1-1.11-1.514,19.4,19.4,0,0,1-.978-1.689c-.3-.586-.589-1.209-.849-1.852s-.5-1.311-.717-2.009-.411-1.412-.584-2.16-.322-1.521-.447-2.3c-.11-.691-.2-1.408-.279-2.136a.2.2,0,0,0-.4-.035" fill="gray"/>
    <path id="Trazado_25" data-name="Trazado 25" d="M128.124,18.174A5.674,5.674,0,1,1,122.45,12.5a5.674,5.674,0,0,1,5.674,5.674" fill="gray"/>
    <path id="Trazado_26" data-name="Trazado 26" d="M126.857,41.061a1.636,1.636,0,0,0-1.357-.707,1.533,1.533,0,0,0-1.28.669c-.337.487-.752,1.065-1.234,1.719a23.192,23.192,0,0,1-1.7,2.041,18.981,18.981,0,0,1-1.72,1.642,1.931,1.931,0,0,1-1.14.568c-.145,0-.415,0-.476-.714a9.459,9.459,0,0,1,.329-2.891,34.129,34.129,0,0,1,1.243-3.967c.545-1.455,1.094-2.845,1.628-4.131.555-1.337,1.033-2.448,1.458-3.4s.691-1.56.792-1.829a2.008,2.008,0,0,0-.359-2.22,4.114,4.114,0,0,0-2.1-1.287,5.717,5.717,0,0,0-2.721-.04,3.652,3.652,0,0,0-2.417,1.762,39.515,39.515,0,0,0-1.97,3.894c-.8,1.753-1.575,3.7-2.3,5.787-.44,1.265-.846,2.552-1.213,3.847a10.937,10.937,0,0,1-3.6,5.485,22.958,22.958,0,0,1-1.953,1.429c-.3.2-.6.379-.906.546a.1.1,0,0,1-.13-.15c.524-.689,1.039-1.435,1.542-2.231a31.378,31.378,0,0,0,2.805-5.838,27.565,27.565,0,0,0,1.628-6.413,14.083,14.083,0,0,0-.217-4.961,6.433,6.433,0,0,0-1.9-3.331,5.006,5.006,0,0,0-3.4-1.223,7.8,7.8,0,0,0-4.287,1.234A17.163,17.163,0,0,0,97.5,28.22c-.06.057-.111.05-.155-.02a3.1,3.1,0,0,0-.656-.73,4.867,4.867,0,0,0-2.214-1.018,5.1,5.1,0,0,0-2.566.175A3.292,3.292,0,0,0,89.9,28.453c-.818,1.762-1.682,3.818-2.568,6.112s-1.745,4.685-2.562,7.117l-.27.81a10.931,10.931,0,0,1-3.718,5.225q-.686.527-1.415,1-.451.3-.907.547a.1.1,0,0,1-.129-.151q.784-1.033,1.541-2.231a31.382,31.382,0,0,0,2.806-5.838,27.628,27.628,0,0,0,1.628-6.413,14.105,14.105,0,0,0-.217-4.961,6.434,6.434,0,0,0-1.9-3.331,5.007,5.007,0,0,0-3.4-1.223A7.8,7.8,0,0,0,74.5,26.354a17.047,17.047,0,0,0-2.41,1.866c-.06.057-.111.05-.154-.02a3.09,3.09,0,0,0-.658-.73,4.868,4.868,0,0,0-2.214-1.018,5.1,5.1,0,0,0-2.566.175,3.3,3.3,0,0,0-2.006,1.826c-.818,1.765-1.682,3.821-2.567,6.113-.83,2.152-1.637,4.386-2.4,6.647a10.525,10.525,0,0,1-2.735,4.334c-.333.324-.658.618-.972.878a1.929,1.929,0,0,1-1.14.568c-.145,0-.416,0-.476-.715a9.462,9.462,0,0,1,.329-2.89,34.231,34.231,0,0,1,1.242-3.967c.54-1.44,1.089-2.83,1.629-4.131s1.036-2.455,1.459-3.4c.432-.964.691-1.563.79-1.829a2,2,0,0,0-.358-2.22,4.122,4.122,0,0,0-2.135-1.289,5.735,5.735,0,0,0-2.719-.038,3.642,3.642,0,0,0-2.38,1.761c-.116.187-.236.394-.364.624a.1.1,0,0,1-.187-.028,5.543,5.543,0,0,0-.529-1.461,4.279,4.279,0,0,0-1.6-1.652,5.136,5.136,0,0,0-2.671-.641c-2.509,0-5.055,1.158-7.564,3.443-2.464,2.243-4.507,5.822-6.073,10.639a26.9,26.9,0,0,0-1.281,6.382,14.03,14.03,0,0,0,.464,4.963,6.762,6.762,0,0,0,2.073,3.284,5.257,5.257,0,0,0,3.458,1.214,7.681,7.681,0,0,0,2.784-.5,10.258,10.258,0,0,0,3.8-2.528.608.608,0,0,1,1.023.247,4.744,4.744,0,0,0,.621,1.338,3.485,3.485,0,0,0,3.083,1.447,7.752,7.752,0,0,0,4.627-1.717A25.754,25.754,0,0,0,55.8,51.6a.2.2,0,0,1,.331.207c-.394,1.311-.748,2.525-1.066,3.664-.537,1.914-.974,3.563-1.3,4.9a13.468,13.468,0,0,0-.491,2.508,4.033,4.033,0,0,0,1.017,2.789,5.533,5.533,0,0,0,2.247,1.539,4.806,4.806,0,0,0,1.6.295,3.734,3.734,0,0,0,.829-.091,1.987,1.987,0,0,0,1.588-1.676l0-.022c.089-.6.257-1.411.5-2.414.254-1.04.563-2.225.918-3.52s.751-2.724,1.223-4.388q.328-1.155.7-2.413a.2.2,0,0,1,.37-.043,5.82,5.82,0,0,0,.37.56,4.265,4.265,0,0,0,3.635,1.552c.33.015.662.022.986.022h0a18.219,18.219,0,0,0,6.754-1.234,27.135,27.135,0,0,0,5.383-2.842.2.2,0,0,1,.308.226c-.461,1.521-.878,2.944-1.244,4.251-.54,1.928-.977,3.577-1.3,4.9a13.585,13.585,0,0,0-.49,2.507A4.041,4.041,0,0,0,79.7,65.666a5.53,5.53,0,0,0,2.247,1.539,4.836,4.836,0,0,0,1.6.295,3.743,3.743,0,0,0,.83-.091,1.987,1.987,0,0,0,1.588-1.676l0-.022c.088-.6.258-1.414.5-2.414.254-1.04.562-2.224.917-3.52s.753-2.73,1.224-4.388q.329-1.156.7-2.413a.2.2,0,0,1,.37-.044,5.537,5.537,0,0,0,.37.561,4.265,4.265,0,0,0,3.635,1.552c.33.015.662.022.986.022a18.228,18.228,0,0,0,6.755-1.234,26.627,26.627,0,0,0,6.2-3.425q.461-.347.9-.7a.2.2,0,0,1,.33.161c0,.077,0,.154,0,.23a6.125,6.125,0,0,0,.9,3.5,3.485,3.485,0,0,0,3.083,1.447,7.9,7.9,0,0,0,4.657-1.714,26.309,26.309,0,0,0,4.141-3.8,40.623,40.623,0,0,0,3.278-4.2c.93-1.387,1.557-2.335,1.915-2.9a1.232,1.232,0,0,0,.023-1.371M48.343,33.673a26.829,26.829,0,0,1-.636,3.439,32.273,32.273,0,0,1-1.275,3.964c-.531,1.358-1.1,2.635-1.683,3.8a20.523,20.523,0,0,1-1.726,2.876,8.08,8.08,0,0,1-1.556,1.668,1.139,1.139,0,0,1-.614.291.191.191,0,0,1-.085-.018c-.065-.029-.285-.177-.4-.869a9.808,9.808,0,0,1-.03-2.43,22.81,22.81,0,0,1,.6-3.4,31.955,31.955,0,0,1,1.274-3.964c.539-1.375,1.106-2.653,1.685-3.8a21.777,21.777,0,0,1,1.729-2.911,7.831,7.831,0,0,1,1.551-1.694,1.153,1.153,0,0,1,.615-.291.184.184,0,0,1,.083.017c.067.03.3.184.438.885a8.278,8.278,0,0,1,.028,2.436m27.487.06a31.3,31.3,0,0,1-.838,3.418,38.82,38.82,0,0,1-1.441,3.961c-.626,1.371-1.273,2.65-1.921,3.8a24.147,24.147,0,0,1-1.9,2.917,8.486,8.486,0,0,1-1.656,1.7,1.239,1.239,0,0,1-.653.3.2.2,0,0,1-.089-.018c-.062-.028-.271-.172-.363-.854a8.262,8.262,0,0,1,.134-2.436,30.273,30.273,0,0,1,.838-3.447A38.152,38.152,0,0,1,69.387,39.1a33.331,33.331,0,0,1,1.877-3.783A24.86,24.86,0,0,1,73.2,32.432a8.9,8.9,0,0,1,1.66-1.677,1.251,1.251,0,0,1,.655-.3.211.211,0,0,1,.087.017c.062.028.272.173.365.854a8.123,8.123,0,0,1-.134,2.4m25.406,0a31.884,31.884,0,0,1-.838,3.418,39.324,39.324,0,0,1-1.441,3.961c-.626,1.369-1.272,2.648-1.922,3.8a24.11,24.11,0,0,1-1.9,2.917,8.568,8.568,0,0,1-1.655,1.7,1.245,1.245,0,0,1-.655.3.206.206,0,0,1-.089-.018c-.062-.028-.272-.172-.363-.854a8.3,8.3,0,0,1,.135-2.436,29.92,29.92,0,0,1,.838-3.447A38.287,38.287,0,0,1,94.791,39.1a33.432,33.432,0,0,1,1.879-3.784A24.424,24.424,0,0,1,98.6,32.432a8.776,8.776,0,0,1,1.659-1.676,1.244,1.244,0,0,1,.655-.3.209.209,0,0,1,.086.017c.062.028.272.173.365.854a8.112,8.112,0,0,1-.133,2.4" fill="gray"/>
    <path id="Trazado_27" data-name="Trazado 27" d="M504.187,24.812h9.4c9.459,0,16.98,5.817,16.98,15.629,0,10.693-6.463,16.157-16.98,16.157h-9.4ZM508.711,52.6h4.759c7.814,0,12.162-3.76,12.162-11.986,0-7.4-5.053-11.81-11.633-11.81h-5.347V52.6Z" fill="gray"/>
    <path id="Trazado_28" data-name="Trazado 28" d="M541.143,28.161h-4.818V23.343h4.818Zm-4.582,5.229h4.289V56.657h-4.289Z" fill="gray"/>
    <path id="Trazado_29" data-name="Trazado 29" d="M548.84,24.812h9.4c9.459,0,16.98,5.817,16.98,15.629,0,10.693-6.463,16.157-16.98,16.157h-9.4ZM553.423,52.6h4.759c7.814,0,12.162-3.76,12.162-11.986,0-7.4-5.053-11.81-11.633-11.81h-5.347V52.6Z" fill="gray"/>
    <path id="Trazado_30" data-name="Trazado 30" d="M585.8,28.161h-4.818V23.343H585.8Zm-4.524,5.229h4.289V56.657h-4.289Z" fill="gray"/>
    <path id="Trazado_31" data-name="Trazado 31" d="M461.884,54.013A19.482,19.482,0,0,0,480.92,34.859V25.87h11.634V35.8c-.235,16.158-14.278,28.849-30.67,29.2-16.686-.117-30.846-12.926-31.022-29.2V18a2.791,2.791,0,0,1,2.937-3H480.92V25.87H443.964a1.419,1.419,0,0,0-1.528,1.527v7.286A19.6,19.6,0,0,0,461.884,54.013Z" fill="gray" fill-rule="evenodd"/>
    <path id="Trazado_32" data-name="Trazado 32" d="M915.211,54.368h-6.87V53.3q0-6.446,0-12.891c0-2.506-1.2-3.8-3.689-3.995a8.687,8.687,0,0,0-4.291.648c.835,4.372.279,8.735.427,13.075.047,1.371.007,2.746.007,4.2h-6.94V53.174q0-6.157,0-12.314c0-3.133-1.286-4.436-4.432-4.475-.67-.007-1.342.1-2.014.126-.817.038-1.1.388-1.093,1.26.047,5.162.023,10.325.023,15.488v1.1h-7.023c-.021-.3-.055-.543-.055-.792q.009-9.667.041-19.336a1.273,1.273,0,0,1,.39-.964c4.946-2.7,10.091-3.877,15.572-1.755a16.853,16.853,0,0,1,2.43,1.442,16.859,16.859,0,0,1,8.133-2.5,10.476,10.476,0,0,1,6.815,1.884,5.944,5.944,0,0,1,2.622,4.805c.054,5.612.031,11.224.034,16.835a2.267,2.267,0,0,1-.085.393" fill="gray"/>
    <path id="Trazado_33" data-name="Trazado 33" d="M714.566,54.335V23.974c5.077-.581,10.107-1.666,15.172-.2a8.92,8.92,0,0,1,5.447,3.84c1.554,2.55,1.706,7.192-2.574,9.253-.17.082-.331.183-.644.359.533.217.952.4,1.377.56,5.638,2.149,5.956,10.03,1.821,13.5a13.15,13.15,0,0,1-8.491,3.1c-3.847.065-7.7.02-11.544.018a4.722,4.722,0,0,1-.564-.078m7.184-5.907c1.611,0,3.17.037,4.725-.019a5.28,5.28,0,0,0,1.76-.411,3.157,3.157,0,0,0,2.005-3.548,2.763,2.763,0,0,0-2.46-2.776c-1.969-.285-3.981-.277-6.087-.4,0,2.243,0,4.251,0,6.258,0,.28.033.56.055.9m-.055-12.92c1.345,0,2.555.009,3.763-.006a4.986,4.986,0,0,0,.946-.131c1.82-.379,2.677-1.367,2.68-3.076a2.952,2.952,0,0,0-2.662-3.115,25.23,25.23,0,0,0-4.188-.023.8.8,0,0,0-.515.581c-.041,1.881-.024,3.763-.024,5.77" fill="gray"/>
    <path id="Trazado_34" data-name="Trazado 34" d="M927.289,21.96V32.97c1-.587,1.843-1.16,2.75-1.6,4.554-2.193,10.107-.6,12.422,3.58a13.446,13.446,0,0,1,1.415,7.364,13.461,13.461,0,0,1-3.072,8.511,12.291,12.291,0,0,1-8.959,4.032,27.943,27.943,0,0,1-10.708-1.4,1.085,1.085,0,0,1-.9-1.208c.028-9.109.015-18.217.034-27.325a1.3,1.3,0,0,1,.37-.976,14.357,14.357,0,0,1,6.65-1.989m.008,21.03c0,1.761.022,3.522-.012,5.282-.012.576.206.838.749.852,1.308.035,2.624.156,3.924.06a4.812,4.812,0,0,0,4.016-2.744,9.144,9.144,0,0,0,.767-5.98,4.274,4.274,0,0,0-3.913-3.885,24.98,24.98,0,0,0-4.738.257c-.6.05-.822.438-.807,1.068.041,1.7.014,3.393.014,5.09" fill="gray"/>
    <path id="Trazado_35" data-name="Trazado 35" d="M835.918,43.583a11.079,11.079,0,0,1-5.623,9.73c-5.111,2.947-12.659,1.758-16.242-2.459-3.968-4.67-3.993-14.928,2.924-18.829,4.911-2.77,13.579-2.361,17.182,3.725a14.733,14.733,0,0,1,1.759,7.833m-7.019-.839-.088-.008c0-.385.025-.771,0-1.153-.23-3.082-2.118-5.04-4.931-5.127-2.945-.091-4.952,1.663-5.315,4.787a10.458,10.458,0,0,0,.088,3.333,6.489,6.489,0,0,0,1.284,2.726c1.365,1.622,3.262,1.76,5.207,1.334a4.463,4.463,0,0,0,3.459-3.709,21.739,21.739,0,0,0,.3-2.183" fill="gray"/>
    <path id="Trazado_36" data-name="Trazado 36" d="M875.644,43.731a11.168,11.168,0,0,1-4.573,8.925c-4.625,3.435-14.245,3.368-18.131-2.988-3.186-5.213-2.135-12.907,2.3-16.619,4.875-4.08,15.212-3.852,18.919,3.138a15.226,15.226,0,0,1,1.486,7.544m-17.537-.8a23.562,23.562,0,0,0,.608,2.853,4.486,4.486,0,0,0,4.364,3.023c2.4.077,4.017-.82,4.862-2.707a9.113,9.113,0,0,0,.543-4.995,5.093,5.093,0,0,0-10.076-.521c-.155.681-.182,1.391-.3,2.347" fill="gray"/>
    <path id="Trazado_37" data-name="Trazado 37" d="M972.78,39.859c.266-2.109-.687-3.507-2.668-3.612a25.982,25.982,0,0,0-4.868.295c-2.79.382-3.608-.051-4.518-2.7-.165-.48-.308-.968-.481-1.515a20.424,20.424,0,0,1,7.288-1.756,26.751,26.751,0,0,1,6.47.562,7.031,7.031,0,0,1,5.7,6.967c.158,4.45.1,8.908.074,13.363a1.523,1.523,0,0,1-.694,1,15.426,15.426,0,0,1-6.51,2.152,23.43,23.43,0,0,1-8.317-.041c-3.389-.771-5.335-2.663-5.641-5.471a7.145,7.145,0,0,1,4.343-7.437,22.924,22.924,0,0,1,8.225-1.729c.536-.036,1.074-.055,1.593-.082m.171,4.535a17.867,17.867,0,0,0-3.04.034,15.118,15.118,0,0,0-3.523,1.078,1.95,1.95,0,0,0-.96,2.218,1.866,1.866,0,0,0,1.59,1.684,7.618,7.618,0,0,0,5.309-.59,1.165,1.165,0,0,0,.6-.755c.064-1.2.028-2.413.028-3.669" fill="gray"/>
    <path id="Trazado_38" data-name="Trazado 38" d="M754.5,39.823c.168-2.216-.739-3.48-2.818-3.593a24.849,24.849,0,0,0-4.68.3c-2.907.4-3.693-.03-4.626-2.8-.151-.449-.288-.9-.454-1.422,4.662-1.759,9.334-2.562,14.15-1.084a7.1,7.1,0,0,1,5.31,6.9c.136,4.452.085,8.911.059,13.366a1.506,1.506,0,0,1-.7,1,15.854,15.854,0,0,1-6.518,2.141,21.2,21.2,0,0,1-8.5-.125,9.47,9.47,0,0,1-3.555-1.776c-3.021-2.6-2.406-7.839,1.1-10.25a15.894,15.894,0,0,1,7.438-2.339c1.264-.146,2.537-.212,3.792-.313m.145,4.361c-1.743.189-3.336.28-4.892.568a4.413,4.413,0,0,0-2.011,1.019,2.092,2.092,0,0,0,.737,3.566,7.317,7.317,0,0,0,5.581-.546,1.154,1.154,0,0,0,.559-.785c.062-1.174.026-2.353.026-3.822" fill="gray"/>
    <path id="Trazado_39" data-name="Trazado 39" d="M787.379,54.367h-6.932v-1.14q0-6.3,0-12.6c0-2.753-1.231-4.071-3.994-4.211-.828-.041-1.663.063-2.5.1-.854.036-1.158.42-1.149,1.327.048,5.1.023,10.2.023,15.3v1.21h-7.048c0-1.044,0-2.088,0-3.131.016-5.612.048-11.224.034-16.837a1.322,1.322,0,0,1,.837-1.41c5.092-2.382,10.331-3.448,15.836-1.645a6.849,6.849,0,0,1,4.388,3.781,6.135,6.135,0,0,1,.529,2.315c.045,5.452.024,10.9.022,16.356,0,.157-.026.314-.05.594" fill="gray"/>
    <path id="Trazado_40" data-name="Trazado 40" d="M665.36,44.324a2.222,2.222,0,0,1,1.462-2.1,110.4,110.4,0,0,1,21.554-6.874c3.886-.808,7.82-1.379,11.735-2.044a1.724,1.724,0,0,1,2.132,1.185c.559,1.532,1.079,3.082,1.546,4.646.342,1.143-.114,1.74-1.3,1.934a133.966,133.966,0,0,0-33.647,9.817c-1.5.674-2.131.362-2.453-1.233-.362-1.787-.691-3.58-1.026-5.332" fill="gray"/>
    <path id="Trazado_41" data-name="Trazado 41" d="M808.742,48.1c.366,1.626.773,3.429,1.176,5.218-4.872,2.253-11.823,2.348-15.77-1.254a11.5,11.5,0,0,1-3.567-8.728c-.169-7.808,4.753-12.8,12.885-12.934a58.52,58.52,0,0,1,6.469.591,10.021,10.021,0,0,1-2.067,5.391c-.164.2-.694.234-1.02.17a10.3,10.3,0,0,0-4.763.093A4.939,4.939,0,0,0,798.176,41a10.8,10.8,0,0,0-.037,2.862c.393,2.938,2.158,4.617,5.14,4.692a48.626,48.626,0,0,0,5.463-.459" fill="gray"/>
    <path id="Trazado_42" data-name="Trazado 42" d="M847.012,54.371h-7.034v-.945q0-14.19-.016-28.381a1.29,1.29,0,0,1,.785-1.353,16.221,16.221,0,0,1,6.265-1.75Z" fill="gray"/>
    <path id="Trazado_43" data-name="Trazado 43" d="M670.922,28.162a1.977,1.977,0,0,1,1.725-2.215c4.27-1,8.535-2.038,12.832-2.911,2.791-.566,5.633-.879,8.454-1.293a1.791,1.791,0,0,1,2.145,1.2c.607,1.549,1.185,3.111,1.713,4.689.387,1.159-.156,1.775-1.553,2.046-5.249,1.019-10.5,2.028-15.733,3.125-1.97.413-3.894,1.048-5.836,1.594-1.511.424-2.133.088-2.53-1.434-.435-1.671-.849-3.348-1.217-4.8" fill="gray"/>
    <path id="Trazado_44" data-name="Trazado 44" d="M680.84,60A1.685,1.685,0,0,1,679,58.711c-.444-1.6-.9-3.2-1.321-4.811a1.763,1.763,0,0,1,1.352-2.43c4.035-1.234,8.067-2.484,12.132-3.615,2.835-.788,5.718-1.4,8.585-2.072,1.476-.345,2.129.05,2.595,1.51.448,1.4.9,2.8,1.323,4.21.341,1.135.01,1.674-1.1,2.007q-10.43,3.119-20.853,6.252c-.334.1-.674.185-.87.238" fill="gray"/>
    <path id="Trazado_45" data-name="Trazado 45" d="M954.936,54.362h-6.922c-.021-.364-.053-.675-.053-.985,0-7.112.012-14.223-.023-21.334,0-.8.242-1.16,1-1.317a10.257,10.257,0,0,1,5.4.135,1.148,1.148,0,0,1,.654.829c.034,7.4.025,14.8.02,22.2a3.5,3.5,0,0,1-.077.473" fill="gray"/>
    <path id="Trazado_46" data-name="Trazado 46" d="M951.438,27.211A3.606,3.606,0,1,1,951.466,20a3.609,3.609,0,0,1,3.634,3.66,3.661,3.661,0,0,1-3.662,3.551" fill="gray"/>
    <path id="Trazado_47" data-name="Trazado 47" d="M1380.547,15h9.235V31.564c.386-.283.65-.371.7-.524,2.42-8.138,13.379-9.046,18.679-4.969,5.679,4.37,7.028,10.5,6.125,17.122-1.129,8.27-6.788,13.189-15.155,13.744-4.642.307-9.128-.166-13.155-2.814a13.2,13.2,0,0,1-6.351-10.965c-.245-9.313-.073-18.637-.073-28.158m25.666,25.294c-.015-4.935-3.229-8.116-8.171-8.087a7.8,7.8,0,0,0-8.149,8.2,8.046,8.046,0,0,0,8.26,8.188c4.785-.019,8.074-3.407,8.06-8.3" fill="gray"/>
    <path id="Trazado_48" data-name="Trazado 48" d="M1443.855,30.406V24.12h9.4V56.278h-9.3V50.391l-.678-.483a2.156,2.156,0,0,1-.047.761c-2.189,4.679-6.147,6.337-11.016,6.355a12.331,12.331,0,0,1-11.44-6.6c-3.858-6.774-3.054-17.047,1.68-22.665,4.556-5.407,13.876-6.021,18.753-1.156a28.094,28.094,0,0,1,2.647,3.8m.27,9.522c-.025-4.941-3.212-8.042-8.227-8-4.891.038-8.219,3.331-8.2,8.119A7.913,7.913,0,0,0,1436.1,48.2c4.886-.055,8.045-3.314,8.021-8.275" fill="gray"/>
    <path id="Trazado_49" data-name="Trazado 49" d="M1356.378,56.569l-12.716-32.587c3.305,0,6.421-.046,9.533.054.418.014,1.028.693,1.185,1.181,2.112,6.573,4.158,13.168,6.227,19.756a8.762,8.762,0,0,0,.471.939c.73-2.116,1.394-3.928,1.981-5.765,1.61-5.035,3.163-10.089,4.821-15.108a1.851,1.851,0,0,1,1.356-1.014c2.943-.093,5.89-.047,9.051-.047-.764,2.008-1.449,3.844-2.161,5.669q-5.994,15.353-12,30.7c-1.388,3.541-3.037,4.655-6.833,4.653q-4.876,0-9.754-.039a3.721,3.721,0,0,1-.744-.224V56.569Z" fill="gray"/>
    <path id="Trazado_50" data-name="Trazado 50" d="M1342.755,47.983V56.41c-1.553,0-3.093.063-4.627-.014a60.66,60.66,0,0,1-7.9-.592c-4.921-.906-7.286-3.563-7.832-8.537a54.138,54.138,0,0,1-.187-5.878h9.466c.077.9.119,1.843.242,2.773.36,2.707,1.391,3.7,4.117,3.8,2.207.082,4.42.017,6.72.017" fill="gray"/>
    <path id="Trazado_51" data-name="Trazado 51" d="M1322.209,24.05v-8.6h9.466v8.532l-9.466.016Z" fill="gray"/>
    <rect id="Rectángulo_35" data-name="Rectángulo 35" width="9.039" height="8.316" transform="translate(1331.649 24.018)" fill="gray"/>
    <rect id="Rectángulo_36" data-name="Rectángulo 36" width="9.466" height="8.282" transform="translate(1322.21 24.018)" fill="gray"/>
    <rect id="Rectángulo_37" data-name="Rectángulo 37" width="9.724" height="8.316" transform="translate(1312.485 24.018)" fill="gray"/>
    <rect id="Rectángulo_38" data-name="Rectángulo 38" width="9.466" height="9.024" transform="translate(1322.21 32.333)" fill="gray"/>
    <path id="Trazado_52" data-name="Trazado 52" d="M1606.591,20.652a18.732,18.732,0,0,0-5.852,1.072,6.971,6.971,0,0,0-4.372-1.072,17.111,17.111,0,0,0-6.346,1.3l-.173.078V37.722h2.654V23.673a13.5,13.5,0,0,1,3.515-.463c3.142,0,4.055.733,4.055,5.58v8.932h2.654V28.377a15.292,15.292,0,0,0-.586-4.576,14.75,14.75,0,0,1,4.07-.591c3.116,0,4.087.77,4.087,5.58v8.932h2.654V28.377c0-5.92-1.486-7.725-6.36-7.725" fill="gray"/>
    <path id="Trazado_53" data-name="Trazado 53" d="M1624.245,20.652c-5.259,0-7.5,2.595-7.5,8.678,0,6.276,2.257,8.836,7.789,8.836a21.43,21.43,0,0,0,5.358-.9l.267-.082-.624-2.5-.309.115a15.736,15.736,0,0,1-4.5.839c-3.373,0-5.007-.862-5.1-5.729h11.459v-.3c0-6.618-1.789-8.964-6.836-8.964m0,2.527c2.7,0,3.657.622,3.88,4.268h-8.452c.279-3.266,1.367-4.268,4.572-4.268" fill="gray"/>
    <path id="Trazado_54" data-name="Trazado 54" d="M1641.265,20.652a18.234,18.234,0,0,0-6.6,1.3l-.173.078V37.722h2.654V23.675a13.146,13.146,0,0,1,3.738-.465c3.363,0,4.341.733,4.341,5.58v8.932h2.654V28.377c0-5.848-1.607-7.725-6.614-7.725" fill="gray"/>
    <path id="Trazado_55" data-name="Trazado 55" d="M1658.145,27.924h0c-2.681-.177-3.725-.789-3.725-2.182,0-2.235,1.12-2.6,3.8-2.6a12.978,12.978,0,0,1,4.465.869l.284.11.906-2.552-.3-.086a20.734,20.734,0,0,0-5.351-.836c-4.658,0-6.645,1.579-6.645,5.28,0,2.139.76,4.174,6.272,4.581,3.1.255,3.666,1.042,3.666,2.5,0,2.3-1.123,2.69-3.642,2.69a14.934,14.934,0,0,1-5.022-.894l-.3-.137-.828,2.527.276.094a21.755,21.755,0,0,0,5.874.873c4.668,0,6.487-1.5,6.487-5.344,0-3.134-1.858-4.6-6.213-4.9" fill="gray"/>
    <path id="Trazado_56" data-name="Trazado 56" d="M1674.1,20.652a20.064,20.064,0,0,0-5.414.805l-.292.082.79,2.538.3-.128a12.355,12.355,0,0,1,4.489-.738c3.517,0,4.379.773,4.434,4.1a19.926,19.926,0,0,0-4.275-.44c-3.989,0-6.645.952-6.645,5.6,0,4.2,1.78,5.693,6.8,5.693a17.869,17.869,0,0,0,6.6-1.3l.172-.079V27.17c0-4.812-1.822-6.518-6.963-6.518m.286,15.051c-3.184,0-3.991-.333-3.991-3.389,0-2.653.8-3.007,3.991-3.007a20,20,0,0,1,4.024.353v5.4a12.924,12.924,0,0,1-4.024.645" fill="gray"/>
    <path id="Trazado_57" data-name="Trazado 57" d="M1686.671,15c-1.127,0-1.629.221-1.629,1.533,0,1.412.525,1.66,1.629,1.66,1.081,0,1.6-.248,1.6-1.66,0-1.3-.515-1.533-1.6-1.533" fill="gray"/>
    <path id="Trazado_58" data-name="Trazado 58" d="M1685.3,38.316c0,2.89-.849,3.357-2.88,3.357h-.3v2.495h.3c2.874,0,5.534-.709,5.534-5.852V21.1H1685.3Z" fill="gray"/>
    <path id="Trazado_59" data-name="Trazado 59" d="M1699.276,20.652c-5.259,0-7.5,2.595-7.5,8.678,0,6.276,2.257,8.836,7.789,8.836a21.437,21.437,0,0,0,5.358-.9l.267-.082-.624-2.5-.31.115a15.724,15.724,0,0,1-4.5.839c-3.373,0-5.007-.862-5.1-5.729h11.459v-.3c0-6.618-1.789-8.964-6.836-8.964m0,2.527c2.7,0,3.656.622,3.88,4.268H1694.7c.279-3.266,1.367-4.268,4.572-4.268" fill="gray"/>
    <path id="Trazado_60" data-name="Trazado 60" d="M1716.391,20.652a7.113,7.113,0,0,0-4.214,1.2V21.1h-2.654V37.722h2.654V25.17c0-1.266,2.116-1.833,4.214-1.833a12.279,12.279,0,0,1,1.612.125l.334.044V20.782l-.258-.032a13.89,13.89,0,0,0-1.688-.1" fill="gray"/>
    <path id="Trazado_61" data-name="Trazado 61" d="M1727.568,20.652c-5.516,0-7.566,2.352-7.566,8.678,0,6.441,2.05,8.836,7.566,8.836,5.539,0,7.6-2.4,7.6-8.836,0-6.326-2.059-8.678-7.6-8.678m0,15.019c-3.682,0-4.69-1.349-4.69-6.278,0-4.763.646-6.246,4.69-6.246,3.6,0,4.722.861,4.722,6.246,0,4.929-1.015,6.278-4.722,6.278" fill="gray"/>
    <path id="Trazado_62" data-name="Trazado 62" d="M1745.051,27.924h0c-2.681-.177-3.725-.789-3.725-2.182,0-2.235,1.12-2.6,3.8-2.6a12.976,12.976,0,0,1,4.465.869l.284.11.906-2.552-.3-.086a20.734,20.734,0,0,0-5.351-.836c-4.658,0-6.645,1.579-6.645,5.28,0,2.139.76,4.174,6.272,4.581,3.1.255,3.666,1.042,3.666,2.5,0,2.3-1.123,2.69-3.642,2.69a14.923,14.923,0,0,1-5.021-.894l-.3-.137-.829,2.527.276.094a21.755,21.755,0,0,0,5.874.873c4.668,0,6.487-1.5,6.487-5.344,0-3.134-1.858-4.6-6.213-4.9" fill="gray"/>
    <path id="Trazado_63" data-name="Trazado 63" d="M1600.581,60.5a12.364,12.364,0,0,1-3.77.492c-3.338,0-4.309-.733-4.309-5.58V46.479h-2.654v9.344c0,5.848,1.608,7.725,6.614,7.725a18.479,18.479,0,0,0,6.6-1.3l.175-.078V46.479h-2.654Z" fill="gray"/>
    <path id="Trazado_64" data-name="Trazado 64" d="M1614.307,46.034a7.113,7.113,0,0,0-4.214,1.2v-.752h-2.654V63.1h2.654V50.552c0-1.266,2.116-1.832,4.214-1.832a12.22,12.22,0,0,1,1.612.124l.334.045V46.164l-.258-.032a13.855,13.855,0,0,0-1.688-.1" fill="gray"/>
    <path id="Trazado_65" data-name="Trazado 65" d="M1625.1,46.034a7.611,7.611,0,0,0-4.119,1.025v-7.47h-2.654V62.174l.173.078a18.277,18.277,0,0,0,6.6,1.3c5.516,0,7.566-2.361,7.566-8.71,0-6.419-2.05-8.805-7.566-8.805m0,14.956a13.834,13.834,0,0,1-4.119-.582V50.552c0-1.347,2.135-1.959,4.119-1.959,3.726,0,4.69,1.278,4.69,6.214,0,4.715-.647,6.183-4.69,6.183" fill="gray"/>
    <path id="Trazado_66" data-name="Trazado 66" d="M1642.5,46.034a20.052,20.052,0,0,0-5.414.805l-.292.082.79,2.538.3-.128a12.338,12.338,0,0,1,4.488-.738c3.517,0,4.379.773,4.434,4.105a19.946,19.946,0,0,0-4.275-.44c-3.989,0-6.646.952-6.646,5.6,0,4.2,1.781,5.693,6.805,5.693a17.86,17.86,0,0,0,6.6-1.3l.173-.079V52.552c0-4.812-1.822-6.518-6.963-6.518m.286,15.051c-3.184,0-3.992-.333-3.992-3.389,0-2.653.8-3.007,3.992-3.007a20.012,20.012,0,0,1,4.024.353v5.4a12.924,12.924,0,0,1-4.024.645" fill="gray"/>
    <path id="Trazado_67" data-name="Trazado 67" d="M1660.474,46.034a18.246,18.246,0,0,0-6.6,1.3l-.173.078V63.1h2.653V49.057a13.143,13.143,0,0,1,3.738-.464c3.363,0,4.341.732,4.341,5.579V63.1h2.654V53.759c0-5.848-1.607-7.725-6.614-7.725" fill="gray"/>
    <path id="Trazado_68" data-name="Trazado 68" d="M1678.446,46.034c-5.516,0-7.566,2.352-7.566,8.677,0,6.442,2.05,8.837,7.566,8.837,5.539,0,7.6-2.4,7.6-8.837,0-6.325-2.059-8.677-7.6-8.677m0,15.019c-3.682,0-4.69-1.349-4.69-6.278,0-4.763.646-6.246,4.69-6.246,3.6,0,4.722.861,4.722,6.246,0,4.929-1.015,6.278-4.722,6.278" fill="gray"/>
    <path id="Trazado_69" data-name="Trazado 69" d="M1695.93,53.306h0c-2.682-.177-3.726-.789-3.726-2.183,0-2.234,1.121-2.594,3.8-2.594a12.972,12.972,0,0,1,4.465.869l.284.111.906-2.553-.3-.086a20.72,20.72,0,0,0-5.351-.836c-4.658,0-6.645,1.579-6.645,5.28,0,2.139.76,4.174,6.272,4.581,3.1.255,3.666,1.042,3.666,2.5,0,2.3-1.123,2.69-3.642,2.69a14.887,14.887,0,0,1-5.021-.9l-.3-.137-.829,2.528.276.094a21.728,21.728,0,0,0,5.874.873c4.668,0,6.487-1.5,6.487-5.344,0-3.134-1.858-4.6-6.213-4.9" fill="gray"/>
    <path id="Trazado_70" data-name="Trazado 70" d="M1557.047,16.549a24.226,24.226,0,1,0,24.225,24.225,24.252,24.252,0,0,0-24.225-24.225m-3.02,33.3,2.806-6.478,2.73,6.448a1.818,1.818,0,0,1-1.877,2.832h-1.818a1.785,1.785,0,0,1-1.841-2.8m-3.949-19.672a3.325,3.325,0,0,1,.559-1.014,3.179,3.179,0,0,1,.6,1l3.878,9.16-4.013,9.264a4.913,4.913,0,0,0,4.763,7.253h1.818a4.948,4.948,0,0,0,4.809-7.259l-3.912-9.243,4.047-9.346a3.4,3.4,0,0,1,.61-1.008,3.179,3.179,0,0,1,.571,1.035l9.278,24.355a21.008,21.008,0,0,1-32.281-.24Zm13.165-4.461c-.671,0-2.358.293-3.535,3.006l-2.84,6.56-2.7-6.365c-1.116-2.64-2.7-3.034-3.538-3.034h-.041c-.853.013-2.437.439-3.484,3.144l-8.479,21.909a21.044,21.044,0,1,1,36.668.286l-8.512-22.341c-1.031-2.708-2.614-3.145-3.466-3.164Z" fill="gray"/>
  </g>
</svg>
