<svg id="Logo_Truora" data-name="Logo Truora" xmlns="http://www.w3.org/2000/svg" xmlns:xlink="http://www.w3.org/1999/xlink" width="200" height="54.39" viewBox="0 0 200 54.39">
  <defs>
    <clipPath id="clip-path">
      <rect id="Rectángulo_33" data-name="Rectángulo 33" width="200" height="54.39" fill="none"/>
    </clipPath>
  </defs>
  <g id="Grupo_27" data-name="Grupo 27" clip-path="url(#clip-path)">
    <path id="Trazado_8" data-name="Trazado 8" d="M33.187,37.967l-3.06-2.891a3.871,3.871,0,0,1-.2-5.4L33.27,32.84,42.3,25.021a3.734,3.734,0,0,1,5.307.417Z" fill="#fff"/>
    <path id="Trazado_9" data-name="Trazado 9" d="M29.913,0H17.662A17.95,17.95,0,0,0,0,18.08H16.711A19.769,19.769,0,0,1,29.913,0" fill="#fff"/>
    <path id="Trazado_10" data-name="Trazado 10" d="M35.623,18.131h.141" fill="#fff"/>
    <path id="Trazado_11" data-name="Trazado 11" d="M33.435,11.561" fill="#fff"/>
    <path id="Trazado_12" data-name="Trazado 12" d="M17.778,30.07A18.775,18.775,0,0,1,35.22,17.75h.535C44.788,17.687,52.441,9.648,52.9,0H36.036A18.562,18.562,0,0,0,17.777,18.08h0Z" fill="#fff"/>
    <path id="Trazado_13" data-name="Trazado 13" d="M35.623,22.065V18.813h-.4A17.555,17.555,0,0,0,17.778,35.938V54.39A17.854,17.854,0,0,0,34.427,42.759h-.484A10.222,10.222,0,0,1,24.8,37.05a10.568,10.568,0,0,1,.883-10.881,10.158,10.158,0,0,1,9.944-4.1" fill="#fff"/>
    <path id="Trazado_14" data-name="Trazado 14" d="M144.009,20.027a11.7,11.7,0,0,1,4.739.964,12.206,12.206,0,0,1,6.453,6.57,12.235,12.235,0,0,1,.955,4.821,12.059,12.059,0,0,1-.955,4.788,12.723,12.723,0,0,1-2.592,3.926,11.884,11.884,0,0,1-17.162,0,12.723,12.723,0,0,1-2.592-3.926,12.042,12.042,0,0,1-.955-4.788,12.218,12.218,0,0,1,.955-4.821,12.313,12.313,0,0,1,6.414-6.57,11.7,11.7,0,0,1,4.74-.964m-30.74.452V33.412c0,3.761,2.018,5.286,4.709,5.286s4.716-1.556,4.716-5.286V20.486h6.192l-.008,13.479c0,7.419-5.144,10.619-10.908,10.619s-10.93-3.2-10.93-10.619V20.479ZM193.7,22.718l.19.23a2.581,2.581,0,0,1,2.567-2.587H200l-.015,23.469h-6.1v-2.6a8.463,8.463,0,0,1-6.918,3.195c-6.4,0-11.229-5.3-11.229-12.345s4.834-12.353,11.229-12.353a8.413,8.413,0,0,1,6.728,2.988M88.508,9.931a6.3,6.3,0,0,1-6.245,6.347h-4.14V37.191a6.75,6.75,0,0,1-6.448,6.786l-.234.006V16.278H61.087a6.3,6.3,0,0,1,6.244-6.347Zm15.97,10.3-.928,6.281a10.042,10.042,0,0,0-3.775-.778c-2.892,0-4.879,1.8-4.879,5.292V37.5a6.38,6.38,0,0,1-1.824,4.48,6.2,6.2,0,0,1-4.122,1.848l-.292.007V20.358H94.7v2.568a7.269,7.269,0,0,1,6.529-3.2,9.429,9.429,0,0,1,3.245.506m70.361,0-.936,6.281a10.027,10.027,0,0,0-3.772-.778c-2.891,0-4.878,1.8-4.878,5.292V37.5a6.379,6.379,0,0,1-1.823,4.48,6.19,6.19,0,0,1-4.12,1.848l-.291.007V20.358h6.05v2.568a7.251,7.251,0,0,1,6.519-3.2,9.414,9.414,0,0,1,3.251.5m-30.83,5.6a6.105,6.105,0,0,0-4.526,1.889,6.42,6.42,0,0,0-1.9,4.665,6.226,6.226,0,0,0,.5,2.465,7.56,7.56,0,0,0,1.407,2.138,6.146,6.146,0,0,0,4.526,1.935,6.3,6.3,0,0,0,2.454-.49,5.832,5.832,0,0,0,2.071-1.445,6.6,6.6,0,0,0,1.407-7.115,6.412,6.412,0,0,0-5.932-4.034Zm44.07-.22c-3.574,0-5.987,2.877-5.987,6.468s2.305,6.46,5.987,6.46,5.987-2.758,5.987-6.46-2.413-6.468-5.987-6.468" fill="#fff"/>
  </g>
</svg>
